<mxfile host="diagram-viewer.giteeusercontent.com" modified="2023-04-14T09:08:44.267Z" agent="5.0 (Macintosh; Intel Mac OS X 10_15_7) AppleWebKit/537.36 (KHTML, like Gecko) Chrome/111.0.0.0 Safari/537.36" version="${version}" etag="L7eSt5v7X5qQQ_lmCm_g" pages="2">
  <diagram id="0" name="第 1 页">
    <mxGraphModel dx="1018" dy="583" grid="1" gridSize="10" guides="1" tooltips="1" connect="1" arrows="1" fold="1" page="1" pageScale="1" pageWidth="827" pageHeight="1169" math="0" shadow="0">
      <root>
        <mxCell id="0" />
        <mxCell id="1" parent="0" />
        <mxCell id="tnToIk1FR-RSRlMiNqdx-2" value="" style="ellipse;whiteSpace=wrap;html=1;" vertex="1" parent="1">
          <mxGeometry x="420" y="280" width="120" height="80" as="geometry" />
        </mxCell>
        <mxCell id="tnToIk1FR-RSRlMiNqdx-3" value="" style="rhombus;whiteSpace=wrap;html=1;" vertex="1" parent="1">
          <mxGeometry x="230" y="280" width="80" height="80" as="geometry" />
        </mxCell>
        <mxCell id="tnToIk1FR-RSRlMiNqdx-4" value="" style="shape=trapezoid;perimeter=trapezoidPerimeter;whiteSpace=wrap;html=1;fixedSize=1;fillColor=#dae8fc;strokeColor=#6c8ebf;" vertex="1" parent="1">
          <mxGeometry x="320" y="150" width="120" height="60" as="geometry" />
        </mxCell>
        <mxCell id="tnToIk1FR-RSRlMiNqdx-5" value="" style="ellipse;shape=cloud;whiteSpace=wrap;html=1;fillColor=#fff2cc;strokeColor=#d6b656;" vertex="1" parent="1">
          <mxGeometry x="320" y="210" width="120" height="80" as="geometry" />
        </mxCell>
        <mxCell id="tnToIk1FR-RSRlMiNqdx-6" value="Cross-Functional Flowchart" style="shape=table;childLayout=tableLayout;startSize=40;collapsible=0;recursiveResize=0;expand=0;fontStyle=1;" vertex="1" parent="1">
          <mxGeometry x="210" y="370" width="400" height="400" as="geometry" />
        </mxCell>
        <mxCell id="tnToIk1FR-RSRlMiNqdx-7" value="Actor 1" style="shape=tableRow;horizontal=0;startSize=40;swimlaneHead=0;swimlaneBody=0;top=0;left=0;bottom=0;right=0;dropTarget=0;fillColor=none;collapsible=0;recursiveResize=0;expand=0;fontStyle=1;" vertex="1" parent="tnToIk1FR-RSRlMiNqdx-6">
          <mxGeometry y="40" width="400" height="120" as="geometry" />
        </mxCell>
        <mxCell id="tnToIk1FR-RSRlMiNqdx-8" value="Phase 1" style="swimlane;swimlaneHead=0;swimlaneBody=0;fontStyle=0;connectable=0;fillColor=none;startSize=40;collapsible=0;recursiveResize=0;expand=0;fontStyle=1;" vertex="1" parent="tnToIk1FR-RSRlMiNqdx-7">
          <mxGeometry x="40" width="120" height="120" as="geometry">
            <mxRectangle width="120" height="120" as="alternateBounds" />
          </mxGeometry>
        </mxCell>
        <mxCell id="tnToIk1FR-RSRlMiNqdx-9" value="Phase 2" style="swimlane;swimlaneHead=0;swimlaneBody=0;fontStyle=0;connectable=0;fillColor=none;startSize=40;collapsible=0;recursiveResize=0;expand=0;fontStyle=1;" vertex="1" parent="tnToIk1FR-RSRlMiNqdx-7">
          <mxGeometry x="160" width="120" height="120" as="geometry">
            <mxRectangle width="120" height="120" as="alternateBounds" />
          </mxGeometry>
        </mxCell>
        <mxCell id="tnToIk1FR-RSRlMiNqdx-10" value="Phase 3" style="swimlane;swimlaneHead=0;swimlaneBody=0;fontStyle=0;connectable=0;fillColor=none;startSize=40;collapsible=0;recursiveResize=0;expand=0;fontStyle=1;" vertex="1" parent="tnToIk1FR-RSRlMiNqdx-7">
          <mxGeometry x="280" width="120" height="120" as="geometry">
            <mxRectangle width="120" height="120" as="alternateBounds" />
          </mxGeometry>
        </mxCell>
        <mxCell id="tnToIk1FR-RSRlMiNqdx-11" value="Actor 2" style="shape=tableRow;horizontal=0;startSize=40;swimlaneHead=0;swimlaneBody=0;top=0;left=0;bottom=0;right=0;dropTarget=0;fillColor=none;collapsible=0;recursiveResize=0;expand=0;fontStyle=1;" vertex="1" parent="tnToIk1FR-RSRlMiNqdx-6">
          <mxGeometry y="160" width="400" height="120" as="geometry" />
        </mxCell>
        <mxCell id="tnToIk1FR-RSRlMiNqdx-12" value="" style="swimlane;swimlaneHead=0;swimlaneBody=0;fontStyle=0;connectable=0;fillColor=none;startSize=0;collapsible=0;recursiveResize=0;expand=0;fontStyle=1;" vertex="1" parent="tnToIk1FR-RSRlMiNqdx-11">
          <mxGeometry x="40" width="120" height="120" as="geometry">
            <mxRectangle width="120" height="120" as="alternateBounds" />
          </mxGeometry>
        </mxCell>
        <mxCell id="tnToIk1FR-RSRlMiNqdx-13" value="" style="swimlane;swimlaneHead=0;swimlaneBody=0;fontStyle=0;connectable=0;fillColor=none;startSize=0;collapsible=0;recursiveResize=0;expand=0;fontStyle=1;" vertex="1" parent="tnToIk1FR-RSRlMiNqdx-11">
          <mxGeometry x="160" width="120" height="120" as="geometry">
            <mxRectangle width="120" height="120" as="alternateBounds" />
          </mxGeometry>
        </mxCell>
        <mxCell id="tnToIk1FR-RSRlMiNqdx-14" value="" style="swimlane;swimlaneHead=0;swimlaneBody=0;fontStyle=0;connectable=0;fillColor=none;startSize=0;collapsible=0;recursiveResize=0;expand=0;fontStyle=1;" vertex="1" parent="tnToIk1FR-RSRlMiNqdx-11">
          <mxGeometry x="280" width="120" height="120" as="geometry">
            <mxRectangle width="120" height="120" as="alternateBounds" />
          </mxGeometry>
        </mxCell>
        <mxCell id="tnToIk1FR-RSRlMiNqdx-15" value="Actor 3" style="shape=tableRow;horizontal=0;startSize=40;swimlaneHead=0;swimlaneBody=0;top=0;left=0;bottom=0;right=0;dropTarget=0;fillColor=none;collapsible=0;recursiveResize=0;expand=0;fontStyle=1;" vertex="1" parent="tnToIk1FR-RSRlMiNqdx-6">
          <mxGeometry y="280" width="400" height="120" as="geometry" />
        </mxCell>
        <mxCell id="tnToIk1FR-RSRlMiNqdx-16" value="" style="swimlane;swimlaneHead=0;swimlaneBody=0;fontStyle=0;connectable=0;fillColor=none;startSize=0;collapsible=0;recursiveResize=0;expand=0;fontStyle=1;" vertex="1" parent="tnToIk1FR-RSRlMiNqdx-15">
          <mxGeometry x="40" width="120" height="120" as="geometry">
            <mxRectangle width="120" height="120" as="alternateBounds" />
          </mxGeometry>
        </mxCell>
        <mxCell id="tnToIk1FR-RSRlMiNqdx-17" value="" style="swimlane;swimlaneHead=0;swimlaneBody=0;fontStyle=0;connectable=0;fillColor=none;startSize=0;collapsible=0;recursiveResize=0;expand=0;fontStyle=1;" vertex="1" parent="tnToIk1FR-RSRlMiNqdx-15">
          <mxGeometry x="160" width="120" height="120" as="geometry">
            <mxRectangle width="120" height="120" as="alternateBounds" />
          </mxGeometry>
        </mxCell>
        <mxCell id="tnToIk1FR-RSRlMiNqdx-18" value="" style="swimlane;swimlaneHead=0;swimlaneBody=0;fontStyle=0;connectable=0;fillColor=none;startSize=0;collapsible=0;recursiveResize=0;expand=0;fontStyle=1;" vertex="1" parent="tnToIk1FR-RSRlMiNqdx-15">
          <mxGeometry x="280" width="120" height="120" as="geometry">
            <mxRectangle width="120" height="120" as="alternateBounds" />
          </mxGeometry>
        </mxCell>
      </root>
    </mxGraphModel>
  </diagram>
  <diagram id="r2zsbya8hx-75wip7I0l" name="第 2 页">
    <mxGraphModel dx="1018" dy="583" grid="1" gridSize="10" guides="1" tooltips="1" connect="1" arrows="1" fold="1" page="1" pageScale="1" pageWidth="827" pageHeight="1169" math="0" shadow="0">
      <root>
        <mxCell id="0" />
        <mxCell id="1" parent="0" />
        <mxCell id="6JfbHaYZHtdtjidKqSQn-1" value="Horizontal Container" style="swimlane;horizontal=0;" vertex="1" parent="1">
          <mxGeometry x="310" y="200" width="200" height="200" as="geometry" />
        </mxCell>
        <mxCell id="6JfbHaYZHtdtjidKqSQn-2" value="" style="shape=flexArrow;endArrow=classic;html=1;rounded=0;" edge="1" parent="1">
          <mxGeometry width="50" height="50" relative="1" as="geometry">
            <mxPoint x="390" y="330" as="sourcePoint" />
            <mxPoint x="440" y="280" as="targetPoint" />
          </mxGeometry>
        </mxCell>
      </root>
    </mxGraphModel>
  </diagram>
</mxfile>
